<svg class="logo--ss-logo" aria-hidden="true" aria-labelledby="ss-logo--2gJdUqxrti" role="img" fill="currentColor" xmlns="http://www.w3.org/2000/svg" viewBox="0 0 191.4 26.87"><desc id="ss-logo--2gJdUqxrti">SteelSeries logo</desc><circle cx="153.66" cy="2" r="2"></circle><path d="M55.47,1.31h-5V6.73h-3V10h3V20.68a4.65,4.65,0,0,0,.45,2.2,3.14,3.14,0,0,0,1.24,1.29,5.09,5.09,0,0,0,1.82.61,14.44,14.44,0,0,0,2.18.16h1.5a13,13,0,0,0,1.4-.14V21a6.09,6.09,0,0,1-.73.1h-.8a2.45,2.45,0,0,1-1.68-.42A2.45,2.45,0,0,1,55.43,19V10h3.63V6.73H55.47Z"></path><path d="M75.12,9.52a8,8,0,0,0-2.8-2.39,8.52,8.52,0,0,0-4-.89A9.42,9.42,0,0,0,64.54,7a8.73,8.73,0,0,0-4.81,5,10.37,10.37,0,0,0-.65,3.78,11.2,11.2,0,0,0,.65,3.85,8.69,8.69,0,0,0,1.84,3,8,8,0,0,0,2.9,1.94,10.36,10.36,0,0,0,3.85.68,9.45,9.45,0,0,0,5.21-1.4,8.27,8.27,0,0,0,3.22-4.65H72.38a3.1,3.1,0,0,1-1.33,1.59,5.1,5.1,0,0,1-5.8-.33A5,5,0,0,1,64.06,17h13a12.84,12.84,0,0,0-.35-4A9.69,9.69,0,0,0,75.12,9.52ZM64,13.85a5.44,5.44,0,0,1,.23-1.19,3.66,3.66,0,0,1,1.92-2.26,4.32,4.32,0,0,1,2-.4,3.5,3.5,0,0,1,2.71,1,5.78,5.78,0,0,1,1.22,2.85Z"></path><path d="M94.32,9.52a8.08,8.08,0,0,0-2.8-2.36,8.52,8.52,0,0,0-4-.89A9.33,9.33,0,0,0,83.76,7,8.73,8.73,0,0,0,79,12a10.57,10.57,0,0,0-.63,3.78,11,11,0,0,0,.61,3.85,8.69,8.69,0,0,0,1.84,3,8,8,0,0,0,2.9,1.94,10.36,10.36,0,0,0,3.85.68,9.47,9.47,0,0,0,5.24-1.4A8.27,8.27,0,0,0,96,19.2H91.61a3.1,3.1,0,0,1-1.33,1.59,5.1,5.1,0,0,1-5.8-.33A5,5,0,0,1,83.32,17h13A12.87,12.87,0,0,0,95.91,13,9.69,9.69,0,0,0,94.32,9.52ZM83.23,13.85a5.44,5.44,0,0,1,.23-1.19,3.66,3.66,0,0,1,1.92-2.26,4.32,4.32,0,0,1,2-.4,3.5,3.5,0,0,1,2.71,1,5.79,5.79,0,0,1,1.23,2.85Z"></path><rect x="97.5" y="1.21" width="5" height="23.59"></rect><path d="M136,9.52a8.43,8.43,0,0,0-2.81-2.36,8.11,8.11,0,0,0-3.86-.92,8.21,8.21,0,0,0-6.38,2.85,9.24,9.24,0,0,0-1.75,3,10.8,10.8,0,0,0-.61,3.65,12.23,12.23,0,0,0,.58,3.85,8.31,8.31,0,0,0,1.71,3,7.88,7.88,0,0,0,2.78,2,9.61,9.61,0,0,0,3.78.7,9.89,9.89,0,0,0,2.81-.4,8.2,8.2,0,0,0,2.43-1.19,7.48,7.48,0,0,0,2.92-4.51h-3.78a4.39,4.39,0,0,1-1.54,2.2,4.75,4.75,0,0,1-2.81.75,4.91,4.91,0,0,1-2.17-.44,4.27,4.27,0,0,1-1.5-1.17,5.08,5.08,0,0,1-.89-1.71,6.78,6.78,0,0,1-.3-2h13.28a10.22,10.22,0,0,0-.26-3.93A9.59,9.59,0,0,0,136,9.52Zm-11.42,4.6a5.32,5.32,0,0,1,.43-1.84,5.14,5.14,0,0,1,1-1.52,4.46,4.46,0,0,1,1.47-1,4.71,4.71,0,0,1,1.85-.38,4.15,4.15,0,0,1,1.84.4,4.49,4.49,0,0,1,1.4,1,5,5,0,0,1,.91,1.52,6.31,6.31,0,0,1,.4,1.82Z"></path><rect x="151.64" y="6.73" width="4" height="18.07"></rect><path d="M118,15.68a6.84,6.84,0,0,0-1.87-.94,18.34,18.34,0,0,0-2.13-.59l-2.17-.45a12,12,0,0,1-1.87-.51,4,4,0,0,1-1.33-.75,1.51,1.51,0,0,1-.51-1.19,1.31,1.31,0,0,1,.35-1,2.26,2.26,0,0,1,.86-.53,4.48,4.48,0,0,1,1.08-.26,8.4,8.4,0,0,1,1-.07,5.35,5.35,0,0,1,2.36.49,2.46,2.46,0,0,1,1.31,1.92h4.16a5.93,5.93,0,0,0-.91-2.57,5.76,5.76,0,0,0-1.71-1.73,7.53,7.53,0,0,0-2.31-1,12,12,0,0,0-2.67-.3,13.89,13.89,0,0,0-2.57.24,7.86,7.86,0,0,0-2.45.86,5.41,5.41,0,0,0-1.82,1.61,4.06,4.06,0,0,0-.72,2.46,4.78,4.78,0,0,0,.49,2.29,4.36,4.36,0,0,0,1.31,1.52,7.17,7.17,0,0,0,1.85.94,20.11,20.11,0,0,0,2.15.59l2.13.45a12,12,0,0,1,1.87.51,3.91,3.91,0,0,1,1.35.79,1.78,1.78,0,0,1,.56,1.26,1.73,1.73,0,0,1-.37,1.24,2.47,2.47,0,0,1-1,.72,5.23,5.23,0,0,1-1.35.33,9.07,9.07,0,0,1-1.28.09,5.23,5.23,0,0,1-2.76-.7,2.91,2.91,0,0,1-1.31-2.25h-4a6.15,6.15,0,0,0,.64,2.59,5.7,5.7,0,0,0,1.68,2,7.35,7.35,0,0,0,2.52,1.17,12.43,12.43,0,0,0,3.16.38,12.85,12.85,0,0,0,2.83-.31,8.76,8.76,0,0,0,2.6-1,5.73,5.73,0,0,0,1.91-1.82,4.88,4.88,0,0,0,.73-2.73,4.6,4.6,0,0,0-.46-2.25A4.66,4.66,0,0,0,118,15.68Z"></path><path d="M172.56,9.49a8.43,8.43,0,0,0-2.81-2.36,8.08,8.08,0,0,0-3.83-.89,8.21,8.21,0,0,0-6.38,2.85,9.24,9.24,0,0,0-1.75,3,10.8,10.8,0,0,0-.61,3.65,12.23,12.23,0,0,0,.58,3.85,8.31,8.31,0,0,0,1.71,3,7.88,7.88,0,0,0,2.78,2,9.61,9.61,0,0,0,3.78.7,9.89,9.89,0,0,0,2.81-.4,8.2,8.2,0,0,0,2.43-1.19,7.48,7.48,0,0,0,2.92-4.51h-3.78a4.41,4.41,0,0,1-1.57,2.2,4.75,4.75,0,0,1-2.81.75,4.91,4.91,0,0,1-2.17-.44,4.27,4.27,0,0,1-1.5-1.17,5.08,5.08,0,0,1-.89-1.71,6.78,6.78,0,0,1-.3-2h13.28a10.37,10.37,0,0,0-.26-4A9.59,9.59,0,0,0,172.56,9.49Zm-11.34,4.64,0,0a5.33,5.33,0,0,1,.4-1.89,5.14,5.14,0,0,1,1-1.52,4.46,4.46,0,0,1,1.47-1A4.78,4.78,0,0,1,166,9.39a4.15,4.15,0,0,1,1.84.4,4.49,4.49,0,0,1,1.4,1,5,5,0,0,1,.91,1.52,6.31,6.31,0,0,1,.4,1.82Z"></path><path d="M190.91,17.18a4.66,4.66,0,0,0-1.33-1.5,6.84,6.84,0,0,0-1.87-.94,18.34,18.34,0,0,0-2.13-.59l-2.17-.45a12,12,0,0,1-1.87-.51,4,4,0,0,1-1.33-.75,1.51,1.51,0,0,1-.51-1.19,1.31,1.31,0,0,1,.35-1,2.25,2.25,0,0,1,.86-.56A4.48,4.48,0,0,1,182,9.43a8.4,8.4,0,0,1,1-.07,5.35,5.35,0,0,1,2.36.49,2.46,2.46,0,0,1,1.31,1.92h4.16A6,6,0,0,0,190,9.2a5.76,5.76,0,0,0-1.71-1.73,7.53,7.53,0,0,0-2.31-1,12,12,0,0,0-2.67-.3,13.89,13.89,0,0,0-2.57.24,7.86,7.86,0,0,0-2.45.86,5.41,5.41,0,0,0-1.82,1.61,4.06,4.06,0,0,0-.72,2.46,4.78,4.78,0,0,0,.49,2.29,4.36,4.36,0,0,0,1.31,1.52,7.17,7.17,0,0,0,1.85.94,20.11,20.11,0,0,0,2.15.59l2.13.45a12,12,0,0,1,1.87.51,3.91,3.91,0,0,1,1.35.79,1.78,1.78,0,0,1,.56,1.26,1.73,1.73,0,0,1-.37,1.24,2.47,2.47,0,0,1-1,.72,5.23,5.23,0,0,1-1.35.33,9.07,9.07,0,0,1-1.28.09,5.23,5.23,0,0,1-2.76-.7,2.93,2.93,0,0,1-1.34-2.18h-4a6.15,6.15,0,0,0,.64,2.59,5.7,5.7,0,0,0,1.68,2A7.35,7.35,0,0,0,180.16,25a12.43,12.43,0,0,0,3.16.38,12.85,12.85,0,0,0,2.83-.31,8.76,8.76,0,0,0,2.6-1,5.73,5.73,0,0,0,1.91-1.82,4.88,4.88,0,0,0,.73-2.73A4.55,4.55,0,0,0,190.91,17.18Z"></path><path d="M45.69,15.46a6.92,6.92,0,0,0-1.84-.93c-.69-.23-1.4-.43-2.11-.59l-2.06-.45a15.86,15.86,0,0,1-1.8-.47,3.68,3.68,0,0,1-1.28-.68,1.36,1.36,0,0,1-.49-1.08,1.3,1.3,0,0,1,.28-.89,1.8,1.8,0,0,1,.68-.51A3,3,0,0,1,38,9.63c.3,0,.61-.05.91-.05a5,5,0,0,1,2.31.51,2.09,2.09,0,0,1,1.07,1.76H47a5.8,5.8,0,0,0-.85-2.62,5.64,5.64,0,0,0-1.8-1.77,7.51,7.51,0,0,0-2.46-.94A14.34,14.34,0,0,0,39,6.24a15.4,15.4,0,0,0-2.87.26,8,8,0,0,0-2.52.91,5.09,5.09,0,0,0-1.8,1.77A5.45,5.45,0,0,0,31.14,12a3.88,3.88,0,0,0,.49,2,4.19,4.19,0,0,0,1.29,1.36,7,7,0,0,0,1.84.87c.67.22,1.37.41,2.11.58A29.8,29.8,0,0,1,41,18a1.85,1.85,0,0,1,1.49,1.68,1.79,1.79,0,0,1-.31,1.1,2.41,2.41,0,0,1-.79.7,3.9,3.9,0,0,1-1,.38,5.08,5.08,0,0,1-1.1.12,5.63,5.63,0,0,1-1.42-.17,3.87,3.87,0,0,1-1.21-.54,3,3,0,0,1-.86-.94,2.59,2.59,0,0,1-.32-1.12H30.74a5.68,5.68,0,0,0,2.72,4.7,8,8,0,0,0,2.67,1,15.3,15.3,0,0,0,6.08,0,7.84,7.84,0,0,0,2.64-1A5.49,5.49,0,0,0,47.47,19,4.31,4.31,0,0,0,47,16.89,4.52,4.52,0,0,0,45.69,15.46Z"></path><path d="M143.05,8.92h-.12V6.77h-3.74V24.84h4V14.5c0-3.25,2.91-4.18,6.58-4.18V6.74h0C148,6.74,145.4,6.61,143.05,8.92Z"></path><path d="M17.72,4.91V2a2,2,0,1,0-4,0V4.91a11.08,11.08,0,0,0-8.86,8.86H2a2,2,0,0,0,0,4H4.81A11.07,11.07,0,1,0,17.72,4.91Zm-2,17.91a7,7,0,1,1,7-7A7,7,0,0,1,15.72,22.82Z"></path><path d="M15.67,11.46h0A4.35,4.35,0,1,0,20,15.81,4.35,4.35,0,0,0,15.66,11.46Zm-.05,5.65a1.3,1.3,0,1,1,1.3-1.3A1.31,1.31,0,0,1,15.62,17.11Z"></path><circle cx="5.24" cy="5.59" r="2"></circle></svg>