<svg class="logo--ss-for-glory" aria-hidden="true" aria-labelledby="ss-logo-for-glory--aS9KLECuRf" role="img" fill="currentColor" xmlns="http://www.w3.org/2000/svg" viewBox="0 0 154.4 26.9"><desc id="ss-logo-for-glory--aS9KLECuRf">For Glory</desc><path d="M13.4,11H5.2l-0.3,0.3v3l0.3,0.3h7.7l0.3,0.3v3.6l-0.3,0.3H5.2L4.9,19v6.9l-0.3,0.3H0.3L0,25.8V7.2l0.3-0.3h13.2l0.3,0.3v3.6L13.4,11z"></path><path d="M25,6.6c5.8,0,9.6,3.6,9.6,9.9s-3.8,9.9-9.6,9.9s-9.6-3.6-9.6-9.9S19.2,6.6,25,6.6z M25,22.3c3,0,4.7-1.9,4.7-5.8S28,10.7,25,10.7s-4.7,1.9-4.7,5.8S21.9,22.3,25,22.3z"></path><path d="M50.5,18.4v0.3l3,3.6v3.5l-0.3,0.3H51l-0.5-0.3L45,19.3L44.4,19h-1.9l-0.3,0.3v6.6L42,26.1h-4.4l-0.3-0.3V7.2l0.3-0.3h9.6c4.1,0,6.9,2.2,6.9,6C54.2,15.3,52.7,17.6,50.5,18.4z M47.2,11h-4.7l-0.3,0.3v3.3l0.3,0.3h4.7c1.1,0,1.9-0.3,1.9-1.9S48.3,11,47.2,11z"></path><path d="M67,16.5c0,4.7,2.2,5.8,4.9,5.8c2.7,0,3.8-1.6,3.8-3L75.5,19h-4.4l-0.3-0.2v-3.3l0.3-0.3h9.3l0.3,0.3v10.4l-0.3,0.3h-3.6l-0.3-0.3l-0.3-1.1H76c-1.3,1.2-3,1.7-4.7,1.6c-5.5,0-9.3-3.6-9.3-9.9s3.8-9.8,9.9-9.8c4.9,0,8,2.5,8.8,6l-0.3,0.3h-4.6l-0.4-0.3c-0.5-1.1-1.4-1.9-3.6-1.9C68.9,10.7,67,12.1,67,16.5z"></path><path d="M97.1,26.1H84.2l-0.3-0.3V7.2l0.3-0.3h4.4l0.3,0.3v14.5l0.3,0.3h8l0.3,0.3v3.6L97.1,26.1z"></path><path d="M107.8,6.6c5.8,0,9.6,3.6,9.6,9.9s-3.8,9.9-9.6,9.9c-5.8,0-9.6-3.6-9.6-9.9S102.1,6.6,107.8,6.6z M107.8,22.3c3,0,4.7-1.9,4.7-5.8s-1.6-5.8-4.7-5.8c-3.1,0-4.7,1.9-4.7,5.8S104.8,22.3,107.8,22.3z"></path><path d="M133.3,18.4v0.3l3,3.5v3.6l-0.3,0.3h-2.2l-0.5-0.3l-5.5-6.6l-0.5-0.3h-1.9l-0.3,0.3v6.6l-0.3,0.3h-4.4l-0.3-0.3V7.2l0.3-0.3h9.6c4.1,0,6.9,2.2,6.9,6C137,15.4,135.6,17.6,133.3,18.4z M130,11h-4.7l-0.3,0.3v3.3l0.3,0.3h4.7c1.1,0,1.9-0.3,1.9-1.9S131.1,11,130,11z"></path><path d="M149,19.3v6.6l-0.3,0.3h-4.4l-0.3-0.3v-6.6l-5.5-8.5V7.2l0.2-0.3h2.5l0.5,0.3l4.4,7.4h0.5l4.4-7.4l0.5-0.3h2.5l0.3,0.3v3.6L149,19.3z"></path></svg>